<svg id="technologies_ic4" xmlns="http://www.w3.org/2000/svg" width="137.983" height="122.88" viewBox="0 0 137.983 122.88">
  <path id="Path_144204" data-name="Path 144204" d="M137.983,61.457c0-9.14-11.442-17.8-28.993-23.177,4.054-17.888,2.246-32.115-5.682-36.674a12.35,12.35,0,0,0-6.3-1.572V6.311a6.624,6.624,0,0,1,3.212.73c3.829,2.19,5.48,10.544,4.188,21.29-.314,2.639-.82,5.424-1.437,8.265A136.635,136.635,0,0,0,85.116,33.53a137.4,137.4,0,0,0-11.7-14.059C82.579,10.937,91.18,6.277,97.031,6.277V0h0c-7.737,0-17.854,5.513-28.1,15.081C58.694,5.57,48.577.112,40.84.112V6.389c5.817,0,14.452,4.638,23.626,13.1A131.284,131.284,0,0,0,52.855,33.53a132.484,132.484,0,0,0-17.888,3.088c-.651-2.807-1.123-5.536-1.46-8.152-1.325-10.746.314-19.1,4.11-21.324a6.269,6.269,0,0,1,3.234-.73V.146h0A12.559,12.559,0,0,0,34.5,1.718c-7.905,4.559-9.679,18.764-5.592,36.6C11.386,43.7,0,52.339,0,61.457c0,9.14,11.442,17.8,28.993,23.177-4.054,17.888-2.246,32.115,5.682,36.674a12.389,12.389,0,0,0,6.333,1.572c7.737,0,17.854-5.513,28.1-15.081,10.241,9.511,20.358,14.968,28.1,14.968a12.559,12.559,0,0,0,6.356-1.572c7.905-4.559,9.679-18.764,5.592-36.6,17.45-5.368,28.836-14.036,28.836-23.143Zm-56.168,0A12.857,12.857,0,1,0,68.958,74.314,12.855,12.855,0,0,0,81.815,61.457ZM40.806.112Zm60.558,42.581c-1.044,3.627-2.336,7.366-3.8,11.106-1.157-2.246-2.358-4.5-3.683-6.749C92.6,44.8,91.214,42.6,89.833,40.47c4,.6,7.849,1.325,11.532,2.223ZM88.485,72.652c-2.19,3.8-4.447,7.4-6.782,10.746-4.188.371-8.433.561-12.711.561-4.245,0-8.489-.2-12.655-.539-2.336-3.346-4.615-6.917-6.8-10.69q-3.2-5.525-5.85-11.2C45.422,57.762,47.4,54,49.5,50.318c2.19-3.8,4.447-7.4,6.782-10.746,4.188-.371,8.433-.561,12.711-.561,4.245,0,8.489.2,12.655.539,2.336,3.346,4.615,6.917,6.8,10.69q3.2,5.525,5.85,11.2C92.528,65.2,90.6,68.958,88.485,72.652Zm9.084-3.661c1.516,3.773,2.807,7.535,3.885,11.2-3.683.9-7.568,1.662-11.588,2.246,1.381-2.167,2.751-4.391,4.054-6.67,1.28-2.246,2.493-4.525,3.649-6.771ZM69.048,99A113.824,113.824,0,0,1,61.232,90c2.527.112,5.12.2,7.737.2,2.639,0,5.255-.056,7.815-.2A111.147,111.147,0,0,1,69.048,99ZM48.128,82.433c-4-.6-7.849-1.325-11.532-2.223,1.044-3.627,2.336-7.366,3.8-11.106,1.157,2.246,2.358,4.5,3.683,6.749s2.673,4.447,4.054,6.58ZM68.9,23.907A113.823,113.823,0,0,1,76.717,32.9c-2.527-.112-5.12-.2-7.737-.2-2.639,0-5.255.056-7.815.2A111.144,111.144,0,0,1,68.9,23.907ZM48.094,40.47c-1.381,2.167-2.751,4.391-4.054,6.67-1.291,2.246-2.5,4.5-3.661,6.749-1.516-3.773-2.807-7.535-3.885-11.2,3.694-.876,7.58-1.628,11.6-2.223ZM22.638,75.684C12.678,71.439,6.243,65.87,6.243,61.457S12.689,51.44,22.638,47.23c2.414-1.044,5.064-1.965,7.793-2.841a135.025,135.025,0,0,0,6.333,17.124,133.133,133.133,0,0,0-6.243,17.046c-2.785-.876-5.435-1.83-7.883-2.875Zm15.137,40.189c-3.829-2.19-5.48-10.544-4.188-21.29.314-2.639.82-5.424,1.437-8.265a136.637,136.637,0,0,0,17.854,3.066,137.4,137.4,0,0,0,11.7,14.059C55.4,111.965,46.8,116.637,40.952,116.637a6.706,6.706,0,0,1-3.178-.764Zm66.712-21.425c1.325,10.746-.314,19.1-4.11,21.324a6.269,6.269,0,0,1-3.234.73c-5.817,0-14.452-4.638-23.626-13.1A131.283,131.283,0,0,0,85.128,89.361a130.7,130.7,0,0,0,17.888-3.1,79.015,79.015,0,0,1,1.471,8.186Zm10.825-18.764c-2.414,1.044-5.064,1.965-7.793,2.841A135.026,135.026,0,0,0,101.185,61.4a133.132,133.132,0,0,0,6.243-17.046q4.177,1.314,7.905,2.863c9.96,4.245,16.394,9.814,16.394,14.227-.022,4.424-6.457,10.016-16.417,14.238Z" fill="#00d8ff" fill-rule="evenodd"/>
</svg>
